<svg width="23" height="30" viewBox="0 0 23 30" fill="none" xmlns="http://www.w3.org/2000/svg">
<path d="M11.087 2.21739C12.1834 2.21739 13.2552 2.54251 14.1668 3.15164C15.0785 3.76076 15.789 4.62653 16.2086 5.63947C16.6281 6.65241 16.7379 7.76702 16.524 8.84235C16.3101 9.91768 15.7821 10.9054 15.0069 11.6807C14.2316 12.456 13.2439 12.9839 12.1685 13.1978C11.0932 13.4117 9.97859 13.3019 8.96565 12.8824C7.95271 12.4628 7.08694 11.7523 6.47781 10.8407C5.86869 9.92904 5.54357 8.85727 5.54357 7.76087C5.54357 6.29065 6.12761 4.88064 7.16721 3.84104C8.20682 2.80143 9.61682 2.21739 11.087 2.21739ZM11.087 0C9.55209 0 8.05161 0.455167 6.77534 1.30794C5.49907 2.16072 4.50434 3.3728 3.91694 4.79091C3.32953 6.20903 3.17584 7.76948 3.4753 9.27494C3.77475 10.7804 4.5139 12.1633 5.59928 13.2486C6.68466 14.334 8.06751 15.0732 9.57298 15.3726C11.0784 15.6721 12.6389 15.5184 14.057 14.931C15.4751 14.3436 16.6872 13.3488 17.54 12.0726C18.3927 10.7963 18.8479 9.29583 18.8479 7.76087C18.8479 5.70256 18.0303 3.72855 16.5748 2.27311C15.1194 0.817661 13.1454 0 11.087 0Z" fill="#323334"/>
<path d="M22.1739 29.5653H19.9565V24.0219C19.9565 22.5516 19.3725 21.1416 18.3329 20.102C17.2933 19.0624 15.8833 18.4784 14.413 18.4784H7.76087C6.29065 18.4784 4.88064 19.0624 3.84104 20.102C2.80143 21.1416 2.21739 22.5516 2.21739 24.0219V29.5653H0V24.0219C0 21.9635 0.817661 19.9895 2.27311 18.5341C3.72855 17.0786 5.70256 16.261 7.76087 16.261H14.413C16.4714 16.261 18.4454 17.0786 19.9008 18.5341C21.3563 19.9895 22.1739 21.9635 22.1739 24.0219V29.5653Z" fill="#323334"/>
</svg>
