<svg width="18" height="20" viewBox="0 0 18 20" fill="none" xmlns="http://www.w3.org/2000/svg">
<path fill-rule="evenodd" clip-rule="evenodd" d="M8.85949 1.54044C7.23942 1.54044 5.6857 2.16018 4.54013 3.26332C3.39457 4.36645 2.751 5.86263 2.751 7.4227H1.39355C1.39355 5.51594 2.18014 3.68729 3.58028 2.33901C4.98041 0.990731 6.8794 0.233276 8.85949 0.233276C10.8396 0.233276 12.7386 0.990731 14.1387 2.33901C15.5388 3.68729 16.3254 5.51594 16.3254 7.4227H14.968C14.968 5.86263 14.3244 4.36645 13.1788 3.26332C12.0333 2.16018 10.4796 1.54044 8.85949 1.54044Z" fill="#323334"/>
<path fill-rule="evenodd" clip-rule="evenodd" d="M0.185521 7.01348C0.249134 6.93717 0.329727 6.8756 0.421355 6.83329C0.512983 6.79098 0.613307 6.76903 0.714924 6.76904H17.0042C17.1058 6.76908 17.206 6.79107 17.2976 6.83338C17.3892 6.87569 17.4697 6.93725 17.5333 7.01352C17.5968 7.08979 17.6418 7.17882 17.6649 7.27406C17.688 7.3693 17.6886 7.46831 17.6667 7.5638L15.188 18.3048C15.0876 18.7403 14.836 19.1299 14.4747 19.4091C14.1134 19.6884 13.664 19.8406 13.2007 19.8407H4.51848C4.05519 19.8406 3.60579 19.6884 3.24448 19.4091C2.88318 19.1299 2.63156 18.7403 2.53118 18.3048L0.0524921 7.5638C0.0307129 7.46853 0.0313565 7.36977 0.0543756 7.27477C0.0773948 7.17977 0.122206 7.09094 0.185521 7.01479V7.01348ZM1.56061 8.07621L3.85605 18.0211C3.88942 18.1664 3.97325 18.2963 4.09369 18.3895C4.21414 18.4827 4.36399 18.5335 4.51848 18.5335H13.2007C13.3552 18.5335 13.505 18.4827 13.6255 18.3895C13.7459 18.2963 13.8297 18.1664 13.8631 18.0211L16.1572 8.07621H1.56197H1.56061Z" fill="#323334"/>
</svg>
