<svg width="30" height="28" viewBox="0 0 30 28" fill="none" xmlns="http://www.w3.org/2000/svg">
<path fill-rule="evenodd" clip-rule="evenodd" d="M14.7067 5.0519L13.3886 3.69703C10.2946 0.516668 4.62144 1.61417 2.57351 5.6126C1.61205 7.49324 1.39512 10.2085 3.15075 13.6738C4.84204 17.0104 8.36066 21.007 14.7067 25.3602C21.0527 21.007 24.5695 17.0104 26.2626 13.6738C28.0182 10.2067 27.8031 7.49324 26.8398 5.6126C24.7919 1.61417 19.1187 0.51483 16.0248 3.69519L14.7067 5.0519ZM14.7067 27.5755C-13.4809 8.94922 6.02778 -5.58852 14.3831 2.10133C14.4934 2.20244 14.6019 2.30723 14.7067 2.41569C14.8104 2.30733 14.9183 2.20307 15.0302 2.10317C23.3837 -5.5922 42.8942 8.94738 14.7067 27.5755Z" fill="#323334"/>
</svg>
