<svg width="20" height="20" viewBox="0 0 20 20" fill="none" xmlns="http://www.w3.org/2000/svg">
<path fill-rule="evenodd" clip-rule="evenodd" d="M10.0304 4.039L9.13682 3.12052C7.03939 0.964513 3.19348 1.70852 1.80516 4.4191C1.15337 5.69401 1.00632 7.53472 2.19648 9.88389C3.34303 12.1458 5.72834 14.8552 10.0304 17.8063C14.3324 14.8552 16.7165 12.1458 17.8643 9.88389C19.0544 7.53347 18.9086 5.69401 18.2556 4.4191C16.8673 1.70852 13.0214 0.963267 10.9239 3.11927L10.0304 4.039ZM10.0304 19.308C-9.0783 6.68104 4.14685 -3.17427 9.81104 2.03878C9.88581 2.10732 9.95934 2.17836 10.0304 2.25188C10.1007 2.17842 10.1739 2.10775 10.2497 2.04002C15.9127 -3.17676 29.1391 6.67979 10.0304 19.308Z" fill="#323334"/>
</svg>
