<svg width="20" height="20" viewBox="0 0 20 20" fill="none" xmlns="http://www.w3.org/2000/svg">
<g opacity="0.5">
<mask id="path-1-inside-1_1_855" fill="white">
<path fill-rule="evenodd" clip-rule="evenodd" d="M10.0304 4.039L9.13682 3.12052C7.03939 0.964513 3.19348 1.70852 1.80516 4.4191C1.15337 5.69401 1.00632 7.53472 2.19648 9.88389C3.34303 12.1458 5.72834 14.8552 10.0304 17.8063C14.3324 14.8552 16.7165 12.1458 17.8643 9.88389C19.0544 7.53347 18.9086 5.69401 18.2556 4.4191C16.8673 1.70852 13.0214 0.963267 10.9239 3.11927L10.0304 4.039ZM10.0304 19.308C-9.0783 6.68104 4.14685 -3.17427 9.81104 2.03878C9.88581 2.10732 9.95934 2.17836 10.0304 2.25188C10.1007 2.17842 10.1739 2.10775 10.2497 2.04002C15.9127 -3.17676 29.1391 6.67979 10.0304 19.308Z"/>
</mask>
<path fill-rule="evenodd" clip-rule="evenodd" d="M10.0304 4.039L9.13682 3.12052C7.03939 0.964513 3.19348 1.70852 1.80516 4.4191C1.15337 5.69401 1.00632 7.53472 2.19648 9.88389C3.34303 12.1458 5.72834 14.8552 10.0304 17.8063C14.3324 14.8552 16.7165 12.1458 17.8643 9.88389C19.0544 7.53347 18.9086 5.69401 18.2556 4.4191C16.8673 1.70852 13.0214 0.963267 10.9239 3.11927L10.0304 4.039ZM10.0304 19.308C-9.0783 6.68104 4.14685 -3.17427 9.81104 2.03878C9.88581 2.10732 9.95934 2.17836 10.0304 2.25188C10.1007 2.17842 10.1739 2.10775 10.2497 2.04002C15.9127 -3.17676 29.1391 6.67979 10.0304 19.308Z" fill="#FE1313"/>
<path d="M10.0304 4.039L8.95523 5.08497L10.0311 6.19086L11.1062 5.08424L10.0304 4.039ZM9.13682 3.12052L8.06166 4.16647L8.06167 4.16649L9.13682 3.12052ZM1.80516 4.4191L0.470088 3.7353L0.469578 3.7363L1.80516 4.4191ZM2.19648 9.88389L0.858407 10.5618L0.858545 10.5621L2.19648 9.88389ZM10.0304 17.8063L9.18186 19.0432L10.0304 19.6253L10.8789 19.0432L10.0304 17.8063ZM17.8643 9.88389L19.2019 10.5627L19.2025 10.5615L17.8643 9.88389ZM18.2556 4.4191L16.9205 5.10291L16.9205 5.10294L18.2556 4.4191ZM10.9239 3.11927L9.84877 2.07332L9.84808 2.07403L10.9239 3.11927ZM10.0304 19.308L9.20342 20.5595L10.0304 21.1059L10.8574 20.5594L10.0304 19.308ZM9.81104 2.03878L8.79524 3.14248L8.79745 3.14451L9.81104 2.03878ZM10.0304 2.25188L8.95159 3.2941L10.0354 4.41594L11.114 3.28908L10.0304 2.25188ZM10.2497 2.04002L11.2487 3.15895L11.2574 3.15117L11.266 3.14325L10.2497 2.04002ZM11.1055 2.99303L10.212 2.07455L8.06167 4.16649L8.95523 5.08497L11.1055 2.99303ZM10.212 2.07456C7.32411 -0.89396 2.27634 0.208741 0.470088 3.7353L3.14023 5.10291C4.11062 3.2083 6.75467 2.82299 8.06166 4.16647L10.212 2.07456ZM0.469578 3.7363C-0.43531 5.50628 -0.511549 7.85775 0.858407 10.5618L3.53455 9.20598C2.52418 7.21169 2.74206 5.88175 3.14074 5.10191L0.469578 3.7363ZM0.858545 10.5621C2.15807 13.1258 4.75829 16.0087 9.18186 19.0432L10.8789 16.5693C6.69839 13.7016 4.52798 11.1658 3.53442 9.20571L0.858545 10.5621ZM10.8789 19.0432C15.3028 16.0085 17.9013 13.1257 19.2019 10.5627L16.5266 9.20512C15.5316 11.166 13.362 13.7018 9.18186 16.5693L10.8789 19.0432ZM19.2025 10.5615C20.5718 7.85736 20.4979 5.50657 19.5906 3.73527L16.9205 5.10294C17.3193 5.88146 17.5371 7.20958 16.5261 9.20627L19.2025 10.5615ZM19.5907 3.7353C17.7848 0.209414 12.7371 -0.895724 9.84877 2.07332L11.9991 4.16523C13.3056 2.82226 15.9498 3.20763 16.9205 5.10291L19.5907 3.7353ZM9.84808 2.07403L8.95452 2.99376L11.1062 5.08424L11.9998 4.16451L9.84808 2.07403ZM10.8573 18.0565C6.20167 14.9801 3.66868 12.1693 2.46948 9.85863C1.28802 7.58218 1.40903 5.82989 1.98344 4.63192C3.21719 2.05886 6.77805 1.28595 8.79524 3.14248L10.8268 0.935074C7.17984 -2.42144 1.29604 -0.873215 -0.721671 3.33486C-1.77299 5.52745 -1.7294 8.28072 -0.193268 11.2406C1.32512 14.1662 4.30474 17.3224 9.20342 20.5595L10.8573 18.0565ZM8.79745 3.14451C8.85292 3.19536 8.90435 3.2452 8.95159 3.2941L11.1092 1.20967C11.0143 1.11151 10.9187 1.01928 10.8246 0.933045L8.79745 3.14451ZM11.114 3.28908C11.1572 3.24396 11.2021 3.20055 11.2487 3.15895L9.25071 0.921096C9.14559 1.01495 9.0442 1.11289 8.94676 1.21469L11.114 3.28908ZM11.266 3.14325C13.2826 1.28554 16.843 2.05772 18.0769 4.63072C18.6513 5.82871 18.7724 7.58117 17.5911 9.85786C16.3919 12.1687 13.859 14.9798 9.20336 18.0566L10.8574 20.5594C15.7561 17.3221 18.7356 14.1655 20.2539 11.2396C21.7899 8.27955 21.8333 5.52613 20.7819 3.33356C18.764 -0.874572 12.8798 -2.42228 9.23341 0.936794L11.266 3.14325Z" fill="#FE1313" mask="url(#path-1-inside-1_1_855)"/>
</g>
</svg>
