<svg width="34" height="34" viewBox="0 0 34 34" fill="none" xmlns="http://www.w3.org/2000/svg">
<path fill-rule="evenodd" clip-rule="evenodd" d="M15.5939 6.21605C13.316 6.21605 11.1313 7.12096 9.52054 8.73172C7.90978 10.3425 7.00487 12.5271 7.00487 14.8051H5.09619C5.09619 12.0209 6.2022 9.35079 8.1709 7.38209C10.1396 5.41338 12.8097 4.30737 15.5939 4.30737C18.3781 4.30737 21.0482 5.41338 23.0169 7.38209C24.9856 9.35079 26.0916 12.0209 26.0916 14.8051H24.183C24.183 12.5271 23.278 10.3425 21.6673 8.73172C20.0565 7.12096 17.8719 6.21605 15.5939 6.21605Z" fill="#323334"/>
<path fill-rule="evenodd" clip-rule="evenodd" d="M3.3976 14.2078C3.48704 14.0963 3.60036 14.0064 3.7292 13.9446C3.85804 13.8829 3.9991 13.8508 4.14198 13.8508H27.0461C27.1889 13.8509 27.3299 13.883 27.4586 13.9448C27.5874 14.0066 27.7006 14.0964 27.79 14.2078C27.8794 14.3192 27.9426 14.4492 27.9751 14.5882C28.0075 14.7273 28.0084 14.8719 27.9775 15.0113L24.4923 30.6949C24.3511 31.3308 23.9974 31.8996 23.4893 32.3074C22.9813 32.7151 22.3494 32.9374 21.698 32.9376H9.49009C8.83867 32.9374 8.20678 32.7151 7.69875 32.3074C7.19072 31.8996 6.83693 31.3308 6.69579 30.6949L3.21055 15.0113C3.17992 14.8722 3.18083 14.728 3.2132 14.5893C3.24556 14.4506 3.30857 14.3209 3.3976 14.2097V14.2078ZM5.33109 15.7595L8.55866 30.2807C8.60558 30.4928 8.72346 30.6826 8.89281 30.8186C9.06217 30.9546 9.27287 31.0288 9.49009 31.0289H21.698C21.9152 31.0288 22.1259 30.9546 22.2953 30.8186C22.4646 30.6826 22.5825 30.4928 22.6294 30.2807L25.8551 15.7595H5.333H5.33109Z" fill="#323334"/>
</svg>
